<?xml version="1.0" standalone="no"?>
<!DOCTYPE svg PUBLIC "-//W3C//DTD SVG 20010904//EN"
 "http://www.w3.org/TR/2001/REC-SVG-20010904/DTD/svg10.dtd">
<svg version="1.0" xmlns="http://www.w3.org/2000/svg"
 width="1280.000000pt" height="640.000000pt" viewBox="0 0 1280.000000 640.000000"
 preserveAspectRatio="xMidYMid meet">
<metadata>
Created by potrace 1.15, written by Peter Selinger 2001-2017
</metadata>
<g transform="translate(0.000000,640.000000) scale(0.100000,-0.100000)"
fill="#000000" stroke="none">
<path d="M11803 4867 c-4 -6 -9 -64 -11 -128 -6 -170 25 -264 120 -366 47 -49
152 -113 185 -113 10 0 12 -7 8 -22 -12 -40 -36 -87 -51 -99 -11 -9 -14 -7
-14 13 0 46 -53 113 -114 143 -72 35 -222 58 -343 52 l-92 -4 5 46 c6 55 -9
87 -55 118 -65 44 -167 19 -184 -45 -9 -36 13 -122 36 -140 27 -21 75 -23 131
-4 l56 19 0 -42 c0 -47 29 -98 104 -185 47 -54 82 -117 72 -128 -3 -2 -25 2
-48 11 -85 33 -174 93 -253 172 -64 63 -90 98 -123 165 -59 120 -75 198 -76
358 l-1 133 -40 10 c-41 11 -123 5 -138 -10 -4 -4 -7 -39 -5 -77 3 -68 3 -68
48 -101 101 -74 113 -94 88 -148 l-12 -26 -55 59 c-69 74 -98 84 -158 52 -52
-27 -77 -68 -67 -107 4 -15 44 -65 89 -112 45 -48 80 -92 78 -99 -3 -7 -22
-21 -43 -32 -38 -19 -38 -19 -64 1 -15 12 -42 52 -62 90 -34 69 -77 109 -116
109 -40 0 -74 -47 -102 -139 -15 -50 -38 -103 -51 -118 l-24 -28 -21 23 c-44
47 -120 57 -144 20 -38 -59 -31 -131 15 -178 35 -34 72 -39 106 -12 12 9 40
56 63 104 45 96 64 114 105 98 14 -5 72 -10 128 -10 77 0 108 -4 125 -16 33
-23 27 -41 -25 -74 -53 -34 -63 -36 -63 -15 0 42 -108 56 -176 24 -25 -12 -29
-21 -32 -59 -7 -87 48 -140 142 -140 36 0 48 4 52 18 21 72 64 117 123 128
l34 7 -7 -39 c-13 -67 -32 -90 -117 -141 -71 -41 -119 -88 -119 -115 0 -18 54
-19 95 -4 70 27 137 119 164 226 20 76 21 78 36 50 18 -32 18 -64 0 -124 -8
-27 -15 -53 -15 -58 0 -14 38 -9 178 26 226 56 338 68 444 44 l53 -11 -66 -17
c-75 -18 -150 -54 -221 -106 l-48 -35 20 -39 c88 -172 389 -223 584 -100 26
17 50 29 53 27 2 -3 8 -32 13 -66 5 -33 11 -64 13 -68 3 -4 -43 -7 -101 -5
-97 3 -116 1 -202 -27 -150 -48 -340 -173 -340 -222 0 -19 20 -43 68 -81 30
-24 28 -48 -2 -48 -18 0 -32 -12 -55 -50 -17 -27 -35 -50 -40 -50 -16 0 -33
-89 -29 -158 5 -97 46 -176 148 -284 44 -47 80 -88 80 -90 0 -3 -35 -3 -78 0
-256 15 -412 -128 -412 -376 l0 -84 73 7 c167 15 205 41 337 225 89 126 133
160 204 160 52 -1 128 -29 79 -30 -12 0 -48 -10 -80 -21 -99 -38 -185 -137
-244 -282 -17 -44 -27 -56 -38 -51 -44 19 -69 15 -131 -22 -157 -92 -378 -182
-532 -218 -96 -22 -263 -38 -323 -31 l-52 7 59 116 c38 77 60 134 64 168 l6
51 -92 6 c-268 19 -279 14 -482 -223 -68 -79 -131 -125 -187 -136 l-33 -7 35
46 c91 119 68 333 -47 446 -24 23 -61 48 -82 56 -37 13 -40 12 -67 -13 -15
-15 -42 -56 -60 -91 -28 -58 -31 -73 -31 -155 0 -74 4 -101 23 -143 37 -83 53
-83 23 -1 -35 100 -36 195 -1 258 l24 45 2 -60 c1 -33 8 -115 14 -182 6 -68 8
-145 4 -173 -6 -44 -10 -50 -31 -50 -13 0 -57 -11 -96 -25 -119 -42 -113 -47
-113 107 0 132 0 133 -34 196 -19 34 -52 79 -74 98 -47 43 -128 82 -177 86
-34 3 -36 1 -52 -47 -23 -67 -22 -175 1 -267 21 -81 59 -166 85 -187 30 -25
16 -31 -77 -31 l-92 0 -12 59 c-34 182 -159 304 -381 371 -39 12 -76 19 -82
15 -24 -15 -10 -120 30 -236 22 -63 36 -115 32 -117 -4 -1 -104 33 -222 76
-390 143 -568 181 -787 166 l-103 -6 0 -27 c0 -17 10 -37 26 -52 28 -26 20
-26 279 -18 117 3 206 -13 352 -64 91 -32 253 -108 253 -118 0 -11 8 -11 -108
2 -53 6 -182 31 -287 56 -161 38 -211 46 -327 50 -75 3 -143 3 -150 0 -11 -4
-12 -23 -2 -108 7 -57 13 -105 13 -106 1 -2 11 -3 24 -3 32 0 91 39 127 85 31
39 34 40 83 37 55 -4 174 -32 347 -82 186 -54 292 -51 412 12 48 25 59 28 78
18 54 -29 168 -60 260 -71 126 -15 268 -3 575 48 277 47 448 50 704 15 94 -14
214 -23 280 -23 345 0 842 150 1070 322 52 39 67 47 56 29 -3 -5 1 -23 10 -39
8 -17 15 -40 15 -52 0 -20 3 -21 51 -16 65 8 142 44 198 93 25 21 83 90 129
154 91 124 131 171 174 201 l27 20 50 -32 c52 -32 66 -59 31 -59 -71 0 -183
-100 -221 -198 -33 -85 -38 -229 -11 -319 12 -37 27 -76 35 -86 12 -18 15 -18
53 -2 21 9 56 32 77 53 29 28 37 32 37 18 0 -34 105 -10 257 59 l63 28 42 -39
c92 -84 209 -140 314 -151 51 -5 51 -5 58 27 3 18 6 70 6 115 0 181 -83 320
-237 399 -23 11 -59 16 -123 16 -103 0 -124 7 -138 49 -10 29 -10 29 36 36
130 18 198 66 298 209 l59 86 14 -33 c19 -47 8 -134 -34 -255 -41 -120 -42
-132 -15 -132 32 0 105 80 124 136 43 121 27 290 -34 366 -35 43 -36 53 -10
93 43 65 19 81 -111 72 -198 -13 -363 -160 -441 -392 -29 -85 -29 -85 -91 -58
-40 17 -80 74 -58 81 47 16 108 72 135 125 73 143 28 414 -88 526 l-35 34 -35
-26 c-46 -36 -112 -137 -134 -206 -24 -78 -23 -302 2 -385 9 -32 16 -59 14
-61 -4 -3 -107 31 -114 38 -3 2 -7 49 -9 103 -6 159 -46 260 -179 445 -42 59
-76 109 -76 113 0 3 11 1 24 -4 85 -32 231 -16 326 36 57 31 138 106 176 164
l28 42 19 -37 c10 -21 47 -75 82 -121 73 -95 82 -125 66 -220 -13 -74 -3 -127
29 -144 27 -15 27 -15 50 48 17 43 21 73 18 122 -5 84 -33 144 -136 288 -79
110 -129 198 -119 208 10 10 158 -100 213 -159 101 -108 190 -267 247 -435 13
-40 27 -75 30 -78 3 -3 31 8 62 25 32 17 64 31 72 31 19 0 42 58 60 154 32
168 -1 390 -76 508 -24 37 -29 54 -24 81 4 24 -2 52 -20 93 -14 33 -28 67 -31
76 -7 24 -57 47 -256 118 -96 34 -194 73 -218 87 -40 23 -43 27 -36 56 10 48
49 119 82 150 l30 29 1 -56 c1 -137 95 -200 389 -260 l112 -23 6 26 c3 14 7
35 9 46 7 33 -15 108 -42 143 -49 65 -149 112 -323 153 l-75 17 61 1 c225 3
386 167 401 408 6 93 0 108 -50 117 -36 7 -259 -45 -284 -65 -27 -23 -62 -93
-98 -199 -21 -58 -44 -118 -53 -135 l-16 -30 -8 70 c-21 185 -112 278 -360
369 -50 18 -69 22 -75 13z m754 -94 c3 -7 -17 -27 -44 -45 -91 -62 -117 -97
-137 -182 -22 -90 -36 -106 -36 -39 1 91 48 177 134 245 48 38 75 45 83 21z
m-658 -218 c36 -78 81 -147 134 -202 23 -24 38 -43 33 -43 -16 0 -127 84 -149
114 -59 76 -87 163 -86 261 l0 70 20 -68 c10 -37 32 -97 48 -132z m145 74 c49
-54 128 -170 121 -177 -8 -9 -73 39 -117 86 -46 49 -90 119 -103 161 l-7 24
30 -22 c17 -11 51 -44 76 -72z m606 74 c-1 -31 -37 -100 -91 -173 -29 -38 -56
-70 -60 -70 -5 0 -2 21 6 46 11 38 59 119 120 201 14 18 25 16 25 -4z m-555
-13 c46 -29 87 -95 92 -149 l4 -46 -21 39 c-12 21 -54 69 -93 107 -67 65 -69
69 -42 69 15 0 42 -9 60 -20z m-103 -120 c98 -130 143 -200 129 -200 -4 0 -32
17 -62 39 -64 46 -114 112 -139 184 -20 58 -34 115 -27 107 2 -3 47 -61 99
-130z m486 -16 c-63 -93 -85 -108 -72 -51 10 50 42 105 87 154 l42 46 3 -28
c3 -21 -12 -51 -60 -121z m163 -28 c-35 -71 -84 -122 -129 -135 -36 -11 -42
-2 -12 17 32 19 137 158 152 199 13 36 13 36 16 9 2 -17 -9 -53 -27 -90z
m-1481 -174 c31 -99 31 -99 -42 -97 -96 2 -108 9 -108 58 0 36 6 46 52 89 62
57 66 55 98 -50z m703 -86 c29 -13 61 -31 72 -40 31 -24 1 -20 -97 13 -47 16
-105 32 -129 37 -40 7 -42 8 -19 15 38 12 116 1 173 -25z m639 -34 c45 -19
118 -77 118 -92 0 -8 -131 48 -235 101 l-40 20 57 -5 c31 -2 76 -13 100 -24z
m-666 -39 c52 -19 94 -40 94 -46 0 -21 -101 1 -184 41 -47 23 -86 44 -86 48 0
13 83 -7 176 -43z m656 -45 c117 -67 121 -85 10 -53 -95 27 -246 120 -221 136
21 12 96 -17 211 -83z m-1288 51 c56 -29 133 -89 152 -118 13 -19 14 -25 3
-32 -36 -24 -114 33 -125 90 -6 28 -7 28 -33 15 -35 -18 -105 -18 -142 1 -30
16 -55 12 -43 -6 3 -5 20 -16 37 -23 l32 -14 -27 -11 c-43 -16 -88 -4 -88 25
0 12 -4 26 -10 29 -17 10 -12 20 21 39 70 41 150 43 223 5z m1231 -115 c60
-30 115 -54 122 -54 7 0 13 -4 13 -10 0 -15 -80 -12 -140 6 -88 26 -157 79
-179 137 -18 48 -13 50 32 12 23 -20 91 -61 152 -91z m-651 51 c202 -88 224
-105 134 -105 -80 0 -181 58 -278 157 -19 20 -25 22 144 -52z m-78 -54 c34
-22 95 -56 135 -75 71 -33 72 -35 38 -35 -88 -2 -191 54 -259 141 -48 60 -52
84 -7 41 17 -17 60 -49 93 -72z m-535 -25 c51 -18 123 -77 107 -88 -17 -11
-80 -28 -142 -38 -28 -5 -59 -11 -68 -15 -16 -6 -18 0 -18 68 0 64 3 76 18 80
32 9 67 6 103 -7z m584 -112 c32 -15 60 -19 143 -18 74 1 100 -2 93 -9 -6 -6
-11 -42 -11 -79 l0 -69 -37 30 c-21 16 -67 41 -102 56 -84 35 -109 52 -127 88
-9 16 -12 27 -7 25 4 -2 26 -13 48 -24z m438 -232 c57 -61 119 -84 224 -86
107 -2 115 -7 161 -94 51 -97 66 -169 65 -332 0 -80 -5 -165 -10 -190 l-9 -45
-24 70 c-63 189 -154 342 -275 461 -78 78 -196 159 -272 186 -33 12 -33 12
-33 80 0 37 5 90 11 119 l11 51 60 -93 c33 -52 74 -109 91 -127z m13 118 c74
-77 143 -117 221 -129 47 -7 48 -7 23 -21 -36 -19 -109 -16 -156 8 -44 22
-114 93 -137 138 -18 35 -30 74 -24 74 3 0 36 -32 73 -70z m269 40 c62 -29
105 -75 105 -111 0 -15 -6 -14 -47 7 -27 13 -93 45 -148 69 -77 36 -96 48 -85
56 21 14 127 1 175 -21z m-773 -16 c-51 -16 -170 -30 -160 -19 12 13 110 33
158 33 l45 0 -43 -14z m650 -45 c48 -28 105 -56 126 -62 l37 -12 -54 -3 c-46
-3 -66 2 -125 32 -39 19 -87 51 -106 72 l-35 37 34 -7 c18 -3 74 -29 123 -57z
m-602 -10 c21 0 18 -4 -18 -20 -67 -29 -312 -53 -297 -28 18 28 164 61 240 54
28 -3 61 -5 75 -6z m91 -89 c-61 -52 -170 -61 -321 -26 l-55 13 60 13 c69 15
190 27 285 28 l65 1 -34 -29z m-11 -75 c-17 -21 -104 -45 -161 -45 -62 0 -142
17 -165 36 -17 13 -2 14 126 9 84 -4 158 -2 175 4 17 5 32 10 34 10 2 1 -2 -6
-9 -14z m44 -186 c-11 -19 -144 -76 -219 -93 -38 -10 -76 -19 -82 -21 -7 -2
-13 -1 -13 4 0 26 187 100 285 114 17 2 31 5 33 6 2 0 0 -4 -4 -10z m84 -51
c-32 -41 -124 -92 -202 -111 -81 -20 -204 -33 -191 -19 6 5 78 35 160 65 83
30 170 64 195 75 62 28 66 27 38 -10z m-2 -81 c-17 -69 -130 -126 -266 -134
-85 -5 -170 8 -170 27 0 13 13 13 26 0 13 -13 155 11 238 40 66 22 136 60 156
85 17 20 24 12 16 -18z m34 -303 c-30 -79 -53 -192 -59 -294 l-6 -115 -22 35
c-32 50 -38 110 -20 186 18 73 58 158 89 192 27 28 30 28 18 -4z m-505 -155
c40 -115 75 -187 104 -213 12 -11 21 -23 21 -28 0 -22 -29 -2 -98 68 -85 87
-91 101 -91 254 0 85 0 85 15 50 8 -19 30 -78 49 -131z m181 -14 c18 -38 28
-72 23 -74 -29 -10 -86 79 -125 194 l-14 40 42 -45 c22 -25 56 -76 74 -115z
m384 136 c15 -30 12 -79 -11 -151 -11 -36 -21 -93 -22 -127 -1 -35 -3 -63 -5
-63 -2 0 -12 19 -22 43 -23 51 -25 103 -6 194 25 119 43 147 66 104z m-400
-269 c31 -83 26 -92 -24 -43 -70 69 -136 215 -136 302 0 30 132 -183 160 -259z
m-253 78 c14 -36 29 -70 35 -77 5 -7 5 -13 -1 -17 -5 -3 -25 10 -45 30 -39 39
-45 71 -28 159 l7 40 3 -35 c2 -19 15 -64 29 -100z m713 84 c13 -39 10 -102
-10 -192 -13 -58 -26 -60 -36 -5 -8 41 14 233 26 233 5 0 14 -16 20 -36z m550
-108 c0 -3 -56 -52 -124 -110 -115 -98 -186 -172 -214 -221 l-11 -20 -1 20 c0
29 52 127 96 181 45 55 108 100 184 131 56 23 70 27 70 19z m-190 -35 c0 -5
-25 -33 -56 -62 -90 -85 -108 -107 -126 -152 l-17 -42 0 40 c-1 56 25 93 116
163 87 68 83 65 83 53z m-292 -14 c16 -19 -44 -145 -60 -129 -9 9 -6 21 10 51
12 21 22 50 22 65 0 28 11 34 28 13z m407 -105 c-3 -16 -18 -46 -33 -66 -27
-36 -168 -156 -183 -156 -10 0 6 56 22 78 29 41 185 186 193 180 4 -3 5 -20 1
-36z m-29 -157 c-42 -70 -120 -121 -203 -131 l-48 -6 50 27 c89 49 155 97 188
136 40 48 47 33 13 -26z m-1289 -78 c-65 -74 -157 -205 -157 -223 0 -7 -5 -16
-11 -20 -18 -11 -1 82 24 136 33 71 143 169 191 170 5 0 -17 -29 -47 -63z m97
-9 c-17 -18 -57 -69 -90 -112 -67 -90 -72 -96 -98 -116 -18 -14 -18 -13 -11
20 17 80 94 183 164 220 56 30 69 25 35 -12z m69 -30 c-22 -24 -55 -65 -73
-91 -41 -62 -88 -115 -112 -128 -17 -9 -16 -4 8 43 40 81 101 157 152 189 64
41 73 36 25 -13z m331 12 c-102 -54 -192 -131 -246 -210 -14 -21 -19 -23 -27
-10 -10 15 0 32 77 128 56 71 147 121 221 122 32 0 31 -1 -25 -30z m36 -27 c0
-3 -54 -61 -119 -127 -65 -67 -133 -143 -151 -171 l-32 -50 7 40 c15 91 94
189 220 274 59 40 75 47 75 34z m20 -77 c-18 -57 -92 -149 -168 -210 -38 -31
-72 -56 -76 -56 -13 0 -5 35 21 82 18 32 62 81 127 138 55 49 102 87 104 85 2
-2 -1 -20 -8 -39z m-2182 -105 c16 -34 27 -79 30 -122 5 -73 -5 -147 -18 -133
-12 14 -80 291 -80 327 l1 32 21 -25 c11 -14 32 -49 46 -79z m21 67 c40 -37
71 -119 78 -205 4 -53 2 -87 -6 -101 -19 -36 -29 -17 -19 35 14 78 -15 179
-74 256 -32 41 -18 52 21 15z m2409 0 c-2 -13 -24 -38 -53 -60 -37 -28 -54
-50 -67 -84 -9 -26 -26 -56 -37 -68 -18 -20 -21 -35 -21 -124 0 -57 -4 -102
-9 -102 -13 0 -17 78 -10 171 10 120 50 192 143 260 47 35 58 36 54 7z m-2492
-144 c27 -144 14 -193 -30 -109 -16 31 -20 62 -23 154 l-3 116 21 -43 c11 -24
27 -77 35 -118z m2688 100 c3 -9 6 -55 6 -104 0 -81 2 -90 25 -111 31 -30 31
-50 3 -76 -21 -19 -117 -57 -125 -50 -2 2 6 39 18 83 42 156 49 190 49 232 0
42 13 56 24 26z m-179 -14 c4 -6 -12 -50 -34 -98 -22 -48 -52 -127 -66 -176
-28 -92 -38 -97 -50 -26 -12 70 30 188 96 271 32 40 43 46 54 29z m-3101 -27
c4 -10 4 -46 0 -82 -5 -52 -4 -63 7 -59 10 4 13 21 11 62 -2 53 -1 56 22 56
22 0 67 -28 94 -60 37 -42 94 -211 77 -228 -6 -6 -92 172 -107 220 -6 21 -15
38 -20 38 -16 0 -8 -70 17 -147 14 -43 25 -89 25 -103 l0 -24 -20 20 c-12 11
-31 46 -44 78 -16 39 -25 52 -29 41 -7 -17 17 -97 40 -132 14 -20 14 -23 -1
-29 -26 -10 -66 24 -88 74 -13 28 -22 76 -25 126 -7 111 20 206 41 149z m3144
-76 c-8 -59 -80 -241 -101 -254 -16 -10 -1 112 21 178 11 31 32 82 48 113 33
69 45 56 32 -37z m-2982 47 c70 -51 124 -174 105 -240 -8 -26 -9 -27 -16 -9
-4 11 -20 53 -36 93 -30 80 -72 147 -101 163 -10 5 -18 14 -18 19 0 13 29 2
66 -26z m3446 0 c40 -21 87 -81 114 -148 13 -33 23 -61 21 -63 -7 -6 -175 174
-191 205 l-17 34 23 -7 c13 -4 35 -14 50 -21z m-2292 -18 c-123 -43 -231 -108
-319 -189 -46 -43 -51 -44 -51 -17 0 36 65 94 169 149 56 30 106 60 112 68 8
9 35 13 83 13 l71 0 -65 -24z m1880 -79 c-8 -80 -26 -117 -106 -212 -23 -28
-22 -24 9 45 19 41 49 114 67 163 18 48 34 86 35 85 2 -2 0 -38 -5 -81z m362
33 c36 -30 145 -180 131 -180 -29 0 -239 200 -222 211 18 11 56 -2 91 -31z
m-2192 -1 c-19 -16 -60 -41 -90 -55 -30 -15 -83 -39 -118 -56 -34 -16 -81 -47
-104 -69 -23 -21 -43 -38 -45 -36 -1 2 10 24 26 48 48 76 148 139 285 180 83
24 86 23 46 -12z m-1750 -140 l85 -92 -39 6 c-66 11 -146 107 -171 207 l-6 25
23 -26 c13 -15 61 -69 108 -120z m32 91 c75 -39 135 -101 153 -159 6 -21 2
-19 -54 18 -67 46 -204 158 -209 171 -5 13 64 -6 110 -30z m3857 -18 c114
-119 168 -182 155 -182 -56 0 -178 100 -213 176 -25 53 -25 54 -5 54 9 0 38
-22 63 -48z m-2117 -46 c-39 -84 -99 -148 -164 -176 -55 -24 -158 -39 -158
-23 0 5 52 40 115 77 122 72 192 127 214 170 28 52 23 15 -7 -48z m-76 10 c-3
-13 -23 -35 -44 -50 -39 -26 -202 -100 -208 -93 -2 2 9 18 24 36 30 36 225
154 230 139 2 -5 1 -19 -2 -32z m2082 19 c21 -13 73 -63 116 -110 43 -47 94
-94 114 -105 28 -15 32 -19 16 -20 -77 -1 -207 94 -265 194 -42 75 -40 80 19
41z m-3716 -233 c-49 -13 -152 65 -188 143 -44 94 -28 88 89 -28 61 -61 106
-113 99 -115z"/>
<path d="M8504 4821 c-22 -10 -56 -32 -75 -48 -19 -17 -52 -42 -73 -57 -66
-44 -157 -34 -462 52 -78 22 -178 44 -224 48 l-83 7 6 -49 c10 -69 67 -180
123 -237 90 -91 204 -127 399 -127 158 0 312 -21 345 -47 2 -2 -44 -50 -103
-106 l-107 -102 0 -101 c0 -88 3 -105 20 -125 l21 -24 -8 45 c-19 109 -2 187
57 254 31 34 87 72 96 64 2 -2 -17 -29 -42 -58 -50 -62 -61 -91 -46 -123 l11
-22 0 23 c2 58 55 111 92 91 14 -7 13 -18 -14 -96 -41 -123 -107 -191 -99
-102 3 22 0 45 -6 51 -6 6 -12 -21 -17 -82 -6 -78 -5 -94 9 -108 15 -16 20
-15 62 7 111 59 186 215 201 419 4 54 11 86 19 89 37 14 264 -50 264 -75 0 -5
-12 -17 -28 -29 -15 -11 -40 -44 -57 -74 -53 -98 -44 -268 19 -389 23 -44 26
-45 68 -44 85 3 176 73 220 169 18 40 23 68 23 135 0 75 -3 91 -27 131 l-28
47 25 5 c14 2 88 2 164 -1 137 -5 138 -5 119 -24 -11 -11 -34 -50 -51 -86 -30
-62 -32 -74 -31 -172 0 -84 5 -116 22 -160 40 -101 100 -145 190 -138 49 4 60
10 93 45 45 49 59 94 59 197 0 121 -44 261 -99 310 -29 26 -27 32 16 34 21 2
76 19 123 38 119 49 160 52 237 20 61 -26 153 -36 153 -17 0 5 -11 23 -25 39
-34 40 -191 92 -279 92 -69 0 -86 10 -86 52 0 34 -2 34 148 3 121 -25 177 -30
206 -19 14 5 14 9 1 34 -23 44 -86 68 -224 84 -78 9 -127 19 -133 28 -4 7 -20
50 -33 95 -27 86 -54 130 -89 143 -18 6 -35 -6 -107 -75 -89 -86 -155 -127
-231 -144 -55 -13 -64 -3 -73 92 -8 75 -25 121 -48 130 -27 10 -210 -143 -252
-210 -1 -2 -25 4 -53 12 -28 9 -56 14 -62 13 -6 -2 -19 20 -28 47 -10 28 -30
72 -45 98 -27 46 -29 47 -75 47 -26 0 -65 -9 -88 -19z m-11 -79 c-47 -44 -66
-89 -73 -172 l-5 -75 -18 32 c-22 41 -21 97 2 148 21 48 73 95 104 95 20 0 19
-2 -10 -28z m-598 -28 c89 -25 175 -60 175 -70 0 -4 -35 -4 -77 -2 -91 6 -174
35 -223 78 l-35 30 40 -6 c22 -4 76 -17 120 -30z m659 27 c3 -4 -1 -17 -9 -27
-19 -25 -19 -44 0 -44 16 0 19 5 29 53 4 18 13 27 26 27 17 0 20 -7 20 -42 -1
-24 -6 -72 -13 -108 -10 -54 -15 -65 -32 -65 -16 0 -21 8 -23 43 -2 23 -7 42
-12 42 -15 0 -30 -36 -30 -69 0 -21 -5 -31 -15 -31 -21 0 -55 36 -55 59 0 72
90 201 114 162z m425 -120 c-36 -70 -53 -115 -57 -152 -7 -72 -24 -38 -24 46
1 81 31 153 86 202 60 54 58 25 -5 -96z m-1118 -76 c47 -22 96 -37 136 -41 92
-10 67 -27 -31 -22 -62 4 -93 11 -133 31 -65 34 -140 108 -177 176 l-28 52 79
-80 c61 -62 96 -88 154 -116z m1239 173 c0 -13 -12 -54 -26 -93 -15 -38 -37
-99 -50 -134 l-23 -65 -16 36 c-16 32 -16 39 -2 89 16 53 94 189 109 189 5 0
8 -10 8 -22z m-412 -82 c5 -81 -7 -114 -49 -136 -20 -11 -20 -11 -3 22 11 21
19 64 22 121 5 108 23 104 30 -7z m766 52 c-3 -13 -14 -39 -24 -58 -25 -49
-50 -138 -50 -174 0 -17 11 -50 25 -74 l25 -43 -27 3 c-48 6 -68 48 -68 146 0
71 4 96 24 135 31 63 112 117 95 65z m46 -99 c-27 -104 -27 -185 -1 -245 22
-49 21 -51 -14 -28 -34 22 -57 88 -57 165 0 83 17 138 56 186 40 48 44 31 16
-78z m-1506 7 c43 -1 67 -5 71 -14 2 -7 16 -17 30 -22 14 -5 25 -17 25 -28 0
-18 -5 -18 -109 9 -115 29 -188 61 -240 104 -54 46 -34 46 64 -2 80 -38 104
-45 159 -47z m1136 -16 c0 -37 -8 -71 -24 -105 -24 -52 -61 -93 -73 -82 -3 4
13 66 37 138 45 138 60 149 60 49z m450 -56 c0 -118 -7 -174 -21 -174 -5 0
-18 15 -30 33 -27 44 -23 150 11 225 31 72 40 54 40 -84z m56 71 c20 -50 18
-161 -6 -210 l-19 -40 1 143 c1 78 3 142 5 142 2 0 11 -16 19 -35z m-1363 5
c42 0 45 -2 63 -42 10 -23 29 -58 42 -77 17 -24 20 -37 12 -45 -16 -16 -81
-11 -132 11 -44 20 -45 22 -51 74 -3 30 -9 65 -13 78 -6 21 -5 22 14 12 11 -6
41 -11 65 -11z m553 -75 l35 -15 -6 -54 c-5 -35 -3 -56 4 -60 17 -11 3 -26
-22 -26 -32 0 -217 44 -217 51 0 4 18 29 40 55 22 27 40 55 40 63 0 17 70 10
126 -14z m421 -2 c39 -17 43 -21 43 -54 0 -51 23 -102 65 -142 l35 -34 -30 -6
c-76 -16 -163 -18 -250 -8 -52 7 -96 14 -99 16 -2 3 29 40 70 82 52 54 78 91
87 121 14 47 20 49 79 25z m463 -181 c0 -7 -36 -42 -44 -42 -8 0 -16 32 -10
41 6 11 54 12 54 1z m-800 -116 c-5 -13 -22 -51 -39 -83 -57 -114 -74 -222
-46 -298 5 -16 3 -15 -13 5 -67 82 -42 266 47 361 44 45 65 52 51 15z m-377
-117 c0 -45 -31 -110 -78 -163 l-35 -39 0 37 c0 23 15 69 39 119 21 45 42 91
46 102 6 20 7 20 17 1 6 -11 11 -36 11 -57z m872 24 c-41 -160 -46 -284 -16
-363 22 -57 14 -64 -22 -20 -68 80 -61 311 11 393 23 26 35 21 27 -10z m155
-22 c39 -56 52 -102 52 -187 0 -46 -6 -100 -12 -120 -12 -36 -14 -37 -21 -16
-5 13 -18 93 -29 179 -12 86 -23 160 -26 165 -3 4 -1 8 5 8 5 0 19 -13 31 -29z
m-483 -11 c7 -14 13 -39 13 -55 0 -45 -26 -137 -50 -179 -23 -38 -41 -48 -34
-18 38 176 44 220 35 246 -14 36 -14 38 6 34 10 -2 23 -14 30 -28z m-83 -14
c9 -19 16 -45 16 -59 0 -30 -35 -142 -55 -177 l-14 -25 -1 29 c0 16 7 65 16
108 9 43 14 97 12 118 -4 49 5 51 26 6z m-74 -71 c0 -81 -20 -165 -40 -165
-13 0 -30 60 -30 104 0 70 32 146 62 146 4 0 8 -38 8 -85z m534 32 c19 -25 19
-31 6 -151 -7 -68 -10 -136 -6 -150 9 -38 -3 -32 -21 12 -13 28 -17 73 -18
180 -2 149 2 159 39 109z m74 -179 c4 -123 -7 -154 -26 -75 -14 55 -4 238 12
210 6 -10 12 -71 14 -135z"/>
<path d="M10734 4805 c-35 -85 4 -148 101 -162 42 -5 45 -4 56 23 6 16 9 51 6
78 -6 66 -39 96 -103 96 -42 0 -46 -2 -60 -35z"/>
<path d="M11295 4830 c-11 -4 -30 -19 -43 -32 -86 -93 -2 -250 126 -235 57 6
74 24 80 85 5 59 -23 132 -61 157 -35 23 -79 33 -102 25z"/>
<path d="M10165 4814 c-68 -35 -109 -106 -103 -178 l3 -37 45 30 c25 16 76 64
114 106 54 60 66 79 55 86 -22 14 -81 10 -114 -7z"/>
<path d="M10483 4810 c-28 -17 -33 -25 -33 -59 0 -56 19 -68 83 -54 87 19 107
29 107 58 0 65 -90 97 -157 55z"/>
<path d="M5835 4790 c-44 -5 -164 -20 -268 -34 -232 -32 -333 -34 -387 -6 -89
46 -196 36 -341 -30 -74 -34 -102 -42 -195 -51 -60 -5 -134 -13 -165 -18 l-56
-7 -49 45 c-69 62 -103 81 -148 81 -50 0 -86 -25 -149 -101 -54 -67 -79 -86
-124 -95 -36 -7 -61 13 -103 86 -30 51 -89 97 -137 106 -45 9 -76 -20 -115
-106 -47 -101 -107 -151 -123 -101 -3 10 -32 44 -65 75 -66 63 -216 142 -249
131 -28 -9 -48 -69 -56 -170 -3 -49 -9 -101 -12 -114 -5 -20 -7 -21 -15 -7
-11 20 -35 20 -96 2 -26 -8 -80 -20 -121 -27 -54 -8 -81 -18 -98 -35 -28 -28
-31 -70 -5 -78 25 -8 108 8 220 45 53 16 107 29 121 27 26 -3 26 -3 -9 -25
-19 -13 -86 -39 -148 -58 -129 -41 -187 -83 -198 -143 l-7 -34 41 21 c86 44
200 37 337 -20 100 -42 100 -42 81 -70 -28 -44 -49 -149 -43 -217 15 -156 108
-252 246 -254 37 0 67 4 77 12 82 69 78 268 -9 434 -18 34 -33 63 -34 66 -2 3
34 6 80 7 45 1 111 6 146 12 36 6 66 9 68 8 1 -2 -2 -21 -8 -43 -41 -145 54
-329 206 -400 79 -37 89 -34 126 41 30 61 31 69 27 152 -5 101 -39 188 -108
279 -22 29 -40 56 -40 59 0 3 10 5 23 5 12 0 55 9 96 20 41 11 92 20 114 20
38 0 39 0 31 -32 -4 -18 -7 -63 -7 -101 2 -134 90 -258 228 -323 111 -52 110
-52 136 2 43 89 34 189 -27 297 -27 50 -110 140 -158 174 l-29 20 159 6 c319
13 511 71 581 176 37 54 27 56 -29 6 -60 -54 -149 -102 -207 -111 -45 -7 -118
3 -105 15 5 4 50 23 99 41 50 18 137 54 195 81 178 81 326 116 620 144 197 19
543 22 627 5 47 -9 76 -10 125 -1 120 22 373 24 693 7 480 -25 465 -25 465 1
0 13 -13 37 -29 55 l-30 33 -158 -2 c-87 -2 -313 4 -503 12 -357 16 -866 18
-1005 5z m-748 -57 c-11 -11 -48 -21 -109 -29 -51 -6 -95 -10 -96 -8 -2 1 10
10 28 19 36 19 98 32 155 34 37 1 38 0 22 -16z m-804 -50 c16 -28 53 -250 43
-260 -2 -2 -13 11 -24 29 -40 66 -80 276 -51 266 8 -3 22 -18 32 -35z m-475
-27 c47 -51 87 -126 101 -187 6 -24 9 -45 7 -46 -2 -2 -30 41 -63 94 -110 177
-126 227 -45 139z m376 -210 l16 -39 -21 19 c-56 49 -78 181 -42 247 l18 32 6
-110 c4 -67 13 -125 23 -149z m65 66 c20 -110 15 -123 -27 -62 -31 47 -45 106
-39 172 11 118 30 85 66 -110z m106 149 c29 -44 55 -165 38 -182 -17 -17 -42
34 -54 113 -6 40 -15 81 -20 91 -19 34 11 17 36 -22z m-1180 -132 c9 -30 44
-105 76 -167 32 -63 59 -115 59 -116 0 -1 -13 -1 -30 2 -42 6 -41 -25 1 -40
41 -14 23 -31 -33 -31 -43 1 -156 41 -192 68 -26 20 -13 43 29 51 20 3 42 15
48 25 18 28 36 23 52 -15 15 -35 32 -52 41 -43 3 3 -15 57 -40 120 -66 167
-72 203 -48 282 4 14 8 3 13 -31 3 -28 14 -75 24 -105z m568 -51 c19 -34 57
-88 82 -118 49 -56 48 -72 -2 -46 -83 43 -163 174 -171 278 -7 95 6 103 32 21
13 -39 39 -100 59 -135z m92 12 c26 -51 47 -120 36 -120 -4 0 -28 21 -53 48
-54 54 -95 137 -104 208 l-6 49 52 -70 c28 -38 62 -90 75 -115z m-518 78 c74
-82 100 -135 108 -219 l6 -64 -29 60 c-16 33 -54 96 -84 141 -30 44 -62 102
-72 129 -18 55 -23 59 71 -47z m47 54 c56 -42 91 -103 101 -172 l5 -45 -20 40
c-11 22 -43 66 -70 99 -52 60 -87 116 -73 116 5 0 30 -17 57 -38z m1676 14 c0
-2 -59 -18 -131 -35 -148 -36 -215 -66 -253 -113 -25 -33 -26 -33 -26 -8 0 68
82 129 200 149 57 9 210 14 210 7z m-1738 -181 c38 -58 78 -146 78 -171 0 -3
-22 13 -49 35 -84 71 -141 183 -141 280 l0 35 33 -55 c18 -30 54 -85 79 -124z
m1778 150 c19 -23 6 -32 -126 -80 -66 -24 -150 -55 -187 -69 -102 -39 -127
-34 -87 16 27 36 86 61 223 97 65 17 125 35 135 40 23 14 28 13 42 -4z m-1420
-164 c19 -34 49 -76 69 -91 19 -16 32 -32 28 -36 -10 -11 -53 22 -83 63 -15
21 -39 51 -53 66 -22 24 -25 37 -24 87 2 82 16 99 24 29 4 -34 19 -79 39 -118z
m911 40 c-21 -44 -41 -89 -44 -100 -5 -19 -12 -21 -76 -21 -39 0 -71 4 -71 9
0 5 14 35 30 66 17 31 30 66 30 76 0 13 7 19 23 20 12 0 38 7 57 14 19 7 47
14 62 14 l27 1 -38 -79z m-463 -25 c8 -21 32 -49 62 -72 37 -29 47 -40 36 -46
-15 -8 -153 -41 -218 -53 l-38 -6 6 43 c3 24 2 67 -4 96 -12 64 -4 71 83 72
60 0 61 0 73 -34z m-513 -44 c17 -11 67 -59 112 -109 l83 -90 -134 -22 c-73
-11 -154 -21 -179 -21 l-47 0 36 65 c28 50 38 82 42 130 5 62 6 65 31 65 14 0
40 -8 56 -18z m894 -283 c17 -25 40 -67 50 -95 20 -54 33 -134 22 -134 -10 0
-43 74 -75 169 -14 41 -38 90 -53 109 l-27 36 26 -19 c14 -11 40 -40 57 -66z
m-83 17 c45 -48 78 -122 89 -201 l7 -50 -66 115 c-77 133 -92 151 -82 100 4
-19 26 -64 50 -100 51 -78 79 -130 73 -137 -11 -10 -49 24 -76 67 -38 61 -111
199 -111 211 0 5 9 9 21 9 15 0 19 5 15 15 -12 33 38 14 80 -29z m-606 -11
c10 -12 10 -25 1 -61 -13 -52 -3 -123 31 -208 10 -27 16 -51 14 -54 -12 -11
-67 64 -81 111 -18 59 -20 151 -4 196 12 35 21 38 39 16z m543 -165 c26 -41
47 -79 47 -84 0 -20 -92 80 -115 124 -12 25 -25 68 -29 95 l-6 50 28 -55 c16
-30 50 -89 75 -130z m-383 34 c11 -23 23 -72 26 -110 l6 -69 -21 25 c-35 43
-101 183 -107 230 l-7 45 42 -40 c23 -22 50 -58 61 -81z m70 26 c29 -56 42
-120 35 -167 -6 -42 -25 -61 -25 -25 0 9 -20 76 -45 147 -25 72 -45 132 -45
134 0 13 65 -59 80 -89z m-615 26 c61 -61 106 -218 91 -319 -9 -58 -21 -54
-31 10 -16 118 -48 218 -103 326 -8 16 21 5 43 -17z m-87 -151 c38 -100 72
-214 72 -239 0 -19 -52 40 -75 84 -24 48 -40 116 -50 220 -9 85 2 72 53 -65z
m92 -25 c18 -63 34 -180 24 -180 -13 0 -74 154 -88 222 -21 99 -21 99 15 58
17 -20 38 -63 49 -100z m504 -15 c13 -33 27 -76 31 -95 l7 -35 -36 35 c-38 36
-66 107 -81 200 l-6 45 30 -45 c17 -25 42 -72 55 -105z m-679 13 c20 -88 41
-144 65 -179 l21 -29 -24 0 c-57 0 -97 93 -97 224 1 92 11 87 35 -16z"/>
<path d="M11550 4750 c0 -21 -9 -64 -21 -94 -11 -30 -21 -74 -22 -96 -2 -40
-1 -42 41 -56 64 -22 84 -16 110 36 26 53 30 146 7 190 -16 32 -61 60 -95 60
-17 0 -20 -6 -20 -40z"/>
<path d="M2448 4754 c-11 -3 -18 -15 -18 -28 0 -28 24 -50 72 -65 40 -13 66
-43 91 -103 9 -21 28 -49 42 -64 31 -31 49 -22 67 37 21 73 -23 159 -104 200
-40 20 -118 32 -150 23z"/>
<path d="M826 4734 c-129 -47 -196 -168 -220 -398 l-12 -121 -17 54 c-9 30
-17 84 -17 119 0 56 -5 72 -30 112 -45 70 -132 147 -202 180 -71 33 -181 54
-236 45 -97 -16 -92 -13 -92 -58 1 -115 50 -243 121 -317 83 -85 226 -142 350
-138 74 2 81 1 106 -25 15 -14 24 -29 21 -32 -3 -3 -25 -1 -49 4 -24 6 -83 11
-130 11 -193 0 -341 -89 -384 -234 l-14 -47 44 -20 c25 -11 88 -25 141 -32
l95 -12 -52 -65 c-86 -107 -119 -204 -89 -261 9 -16 6 -24 -17 -43 -129 -108
-153 -452 -44 -604 17 -22 39 -43 50 -47 12 -3 21 -11 21 -16 0 -6 -27 -58
-59 -117 -78 -139 -95 -202 -88 -307 9 -124 53 -241 128 -342 l38 -51 -24 -16
c-50 -33 -73 -108 -90 -293 l-7 -72 37 -37 c36 -35 39 -36 89 -30 77 9 131 30
210 84 39 26 76 51 81 54 6 4 34 -8 63 -27 59 -37 180 -77 292 -97 109 -19
445 -16 593 6 149 21 330 67 405 101 56 26 56 27 32 38 -44 20 -271 13 -400
-12 -150 -29 -320 -37 -380 -19 l-45 14 3 94 c6 146 -15 191 -180 385 l-68 80
30 6 c16 4 41 14 54 23 50 32 62 23 91 -66 72 -221 183 -328 372 -359 39 -6
78 -9 86 -6 21 8 31 116 17 185 -25 118 -98 209 -215 264 -35 16 -89 32 -119
35 -69 7 -63 23 9 23 72 0 150 -17 206 -45 53 -27 119 -96 119 -125 0 -36 30
-94 68 -133 55 -57 147 -78 256 -60 l39 6 -6 66 c-4 36 -11 83 -17 103 -26 91
-118 181 -213 210 -25 8 -95 13 -168 13 l-127 0 27 31 c79 90 145 246 157 370
8 85 -15 176 -57 227 -26 32 -32 35 -60 27 -198 -57 -310 -310 -230 -519 19
-50 19 -50 0 -40 -50 26 -85 98 -148 304 -41 134 -76 189 -143 220 -51 24 -52
24 -78 5 -47 -33 -97 -95 -115 -143 -25 -66 -17 -190 17 -275 36 -87 84 -164
144 -230 l50 -56 -45 -23 c-25 -13 -51 -21 -57 -19 -6 2 -14 26 -18 53 -7 57
-51 154 -91 201 -42 50 -136 112 -293 193 -126 65 -142 76 -137 94 18 56 16
75 -19 153 -33 73 -36 87 -36 175 0 148 39 247 125 319 51 42 91 58 150 58 58
0 116 19 148 48 11 9 50 63 88 119 38 56 73 104 79 108 6 4 10 -7 10 -27 0
-18 5 -51 9 -73 5 -22 11 -57 13 -78 3 -38 2 -39 -50 -56 -67 -23 -152 -81
-195 -134 -66 -82 -288 -426 -298 -462 -8 -29 -7 -43 8 -73 29 -60 43 -52 95
51 26 51 76 136 110 187 67 102 222 267 276 294 31 16 32 16 32 -6 0 -41 -45
-121 -117 -208 -39 -47 -83 -103 -97 -124 -45 -67 -30 -150 35 -197 31 -22 32
-22 45 -4 19 25 18 31 -11 93 -14 30 -25 60 -25 67 0 8 48 66 107 131 l106
116 19 -38 c36 -74 109 -132 213 -170 133 -48 271 -39 345 22 51 43 55 59 26
108 -36 61 -97 113 -185 155 -73 34 -81 36 -181 36 -98 0 -110 -2 -167 -30
-60 -30 -61 -30 -52 -7 5 13 9 68 9 123 l0 100 33 -24 c165 -125 418 -113 543
26 24 27 44 57 44 67 0 9 -14 36 -31 59 -57 80 -190 117 -321 91 -83 -16 -176
-59 -225 -104 l-40 -36 -21 78 c-11 42 -22 93 -24 112 l-3 35 53 3 c56 3 71
-12 22 -23 -20 -4 -30 -13 -30 -25 0 -46 78 -51 225 -15 69 17 128 25 189 25
l89 0 54 46 c58 49 161 172 209 248 27 42 31 45 64 41 19 -2 61 -7 92 -10 69
-8 97 -28 104 -77 l6 -36 -68 -7 c-131 -13 -241 -49 -313 -104 -30 -22 -91
-104 -91 -120 0 -4 87 -5 192 -4 l193 3 6 83 c3 46 9 89 13 95 4 7 26 12 49
12 23 0 73 9 111 20 38 11 71 18 73 16 2 -2 -3 -16 -12 -32 -19 -38 -19 -107
1 -145 15 -30 65 -59 102 -59 11 0 30 17 46 41 36 53 29 85 -35 155 -27 30
-49 58 -49 62 0 5 22 19 50 32 27 13 62 36 77 52 26 27 26 30 14 61 -8 17 -14
42 -13 54 0 18 -9 25 -39 34 -56 17 -104 0 -175 -64 -87 -80 -99 -84 -129 -50
-13 15 -25 38 -25 51 0 18 5 22 33 22 77 0 137 65 137 150 0 85 -5 90 -72 90
-63 0 -118 -21 -152 -59 -25 -28 -85 -65 -93 -58 -14 15 12 81 50 128 105 128
107 131 107 168 0 91 -71 109 -161 41 -30 -22 -63 -40 -75 -40 -12 0 -41 16
-64 35 -23 19 -54 38 -68 42 -34 8 -125 -39 -154 -81 -12 -17 -23 -33 -25 -35
-2 -3 -17 10 -33 27 -33 37 -72 42 -121 16 -54 -28 -76 -121 -43 -190 25 -51
38 -59 83 -45 42 12 86 7 115 -14 17 -13 17 -15 2 -37 -20 -28 -20 -56 0 -125
9 -30 14 -56 12 -58 -2 -2 -30 9 -62 25 -49 25 -71 30 -132 30 -82 0 -130 -15
-211 -66 -47 -30 -54 -39 -80 -109 -38 -103 -93 -163 -93 -101 0 13 -13 56
-30 94 -16 39 -30 76 -30 81 0 6 13 11 30 11 45 0 126 34 175 74 91 75 149
251 126 387 -19 114 -22 119 -83 118 -29 0 -71 -7 -92 -15z m-2 -76 c-67 -52
-95 -91 -130 -183 -7 -18 -8 -17 -12 9 -9 66 48 154 122 187 50 22 59 17 20
-13z m-469 -47 c47 -21 99 -76 120 -128 27 -65 16 -65 -53 4 -37 37 -91 82
-120 98 -28 17 -52 33 -52 38 0 14 65 7 105 -12z m510 -18 c-10 -16 -37 -53
-61 -83 -24 -30 -50 -71 -58 -90 l-14 -35 -7 26 c-16 62 43 166 110 195 44 19
49 17 30 -13z m-733 -95 c40 -98 72 -131 153 -158 64 -21 115 -53 115 -71 0
-26 -157 41 -214 92 -65 56 -116 159 -116 229 1 24 1 24 15 5 9 -10 30 -54 47
-97z m774 60 c-5 -27 -122 -228 -133 -228 -1 0 -3 17 -3 39 0 32 11 54 67 130
38 50 70 91 72 91 2 0 1 -14 -3 -32z m-609 -7 c43 -31 119 -118 111 -127 -6
-5 -151 97 -188 132 l-25 24 31 0 c18 0 47 -12 71 -29z m1032 -6 c33 -57 73
-68 212 -60 l116 7 -23 -73 c-12 -41 -33 -107 -45 -148 -12 -40 -32 -87 -44
-105 -18 -27 -27 -31 -61 -29 l-39 1 -1 -54 c-1 -97 -51 -137 -217 -174 -56
-12 -110 -26 -119 -31 -35 -19 -17 1 71 75 108 92 155 156 147 204 -3 23 -1
32 10 32 8 0 14 -5 14 -11 0 -17 81 -5 127 18 44 23 73 72 73 125 0 44 -39 82
-103 98 -133 35 -182 60 -167 88 5 9 11 29 15 45 3 15 7 27 9 27 2 0 13 -16
25 -35z m-998 -130 c40 -27 67 -51 61 -53 -22 -7 -118 27 -159 57 -39 28 -83
99 -83 134 0 12 17 0 54 -36 30 -29 87 -75 127 -102z m615 30 c-9 -47 -60
-120 -107 -155 -49 -35 -71 -39 -42 -7 11 12 37 54 58 92 21 39 50 90 64 115
l26 45 3 -29 c2 -16 1 -43 -2 -61z m838 -98 c14 -10 16 -21 10 -64 -6 -49 -8
-52 -50 -68 -24 -9 -56 -15 -71 -13 -23 2 -29 8 -31 35 -2 25 3 35 24 50 15
10 38 30 53 44 30 31 41 34 65 16z m-564 -147 c0 -6 -35 -10 -85 -10 -81 0
-89 -2 -138 -34 -29 -18 -65 -47 -81 -64 -16 -17 -33 -29 -38 -26 -20 13 -4
43 49 91 l58 53 118 0 c71 0 117 -4 117 -10z m-50 -40 c-68 -46 -186 -113
-219 -125 -39 -13 -41 -13 -32 4 13 24 74 77 111 96 33 17 92 33 130 34 20 1
22 -1 10 -9z m839 -23 c6 -8 12 -24 13 -37 3 -21 -3 -25 -42 -33 -25 -5 -50
-13 -57 -19 -17 -14 -33 21 -22 50 5 13 23 29 41 37 42 18 53 18 67 2z m-1571
-6 c19 -12 1 -18 -100 -31 -46 -6 -98 -20 -115 -30 -37 -21 -44 -13 -13 15 45
40 191 70 228 46z m782 -19 c0 -14 -42 -49 -105 -87 -60 -36 -191 -82 -202
-71 -3 3 3 9 13 12 10 4 56 33 101 66 45 32 97 65 115 73 37 16 78 19 78 7z
m-855 -73 c-69 -46 -161 -95 -217 -115 l-39 -13 18 30 c32 55 125 107 228 129
70 14 71 11 10 -31z m299 -2 c22 -22 46 -100 46 -148 0 -11 -12 -30 -26 -43
-24 -20 -32 -21 -93 -14 -36 5 -95 12 -130 16 l-64 7 86 52 c84 52 117 85 131
131 9 28 21 28 50 -1z m536 3 c0 -5 -14 -25 -31 -44 -39 -45 -139 -94 -204
-101 -42 -5 -46 -4 -25 5 92 41 190 94 220 119 40 34 40 34 40 21z m-745 -30
c-3 -5 -10 -10 -15 -10 -5 0 -37 -18 -70 -39 -59 -38 -156 -78 -166 -68 -9 9
131 91 186 108 65 21 73 22 65 9z m1235 -59 c-5 -11 -10 -33 -10 -50 0 -29 -2
-31 -37 -31 -21 0 -55 5 -77 11 -38 10 -38 11 -20 30 18 17 113 57 142 58 9 1
10 -4 2 -18z m-1251 -18 c-12 -14 -68 -43 -84 -43 -3 0 -5 5 -5 10 0 14 60 50
84 50 16 0 17 -2 5 -17z m108 -139 c2 -7 -19 -13 -54 -17 -97 -10 -152 -35
-210 -93 l-53 -53 0 30 c0 23 13 44 51 84 l51 54 92 4 c118 4 119 4 123 -9z
m653 -64 c-14 -11 -56 -24 -95 -30 -38 -6 -82 -13 -97 -16 -38 -8 -36 12 4 32
30 15 197 45 208 36 3 -2 -6 -12 -20 -22z m-782 -59 c-73 -38 -144 -72 -158
-76 l-25 -8 26 34 c30 40 108 95 153 108 17 5 55 10 84 10 l53 1 -133 -69z
m927 20 c-9 -16 -64 -29 -195 -50 -69 -10 -134 -22 -145 -27 -37 -15 6 27 45
44 74 31 311 57 295 33z m-790 -21 c-16 -18 -128 -60 -158 -60 -25 0 22 31 83
53 84 32 99 33 75 7z m15 -59 c0 -27 -16 -36 -103 -60 -92 -25 -87 -25 -87 -6
0 17 20 27 102 50 31 8 60 20 63 25 10 17 25 11 25 -9z m760 10 c-29 -18 -136
-40 -215 -46 l-80 -5 40 15 c75 29 297 60 255 36z m10 -56 c0 -24 -55 -45
-143 -55 -106 -13 -137 -12 -137 1 0 17 66 39 122 40 29 0 73 6 98 13 61 18
60 18 60 1z m-163 -259 c82 -28 136 -55 111 -56 -27 0 -231 39 -253 50 -16 7
-13 9 17 9 20 1 40 6 43 11 8 13 0 14 82 -14z m-58 -71 c103 -13 171 -36 171
-57 0 -13 -35 -9 -190 17 -80 14 -165 25 -189 25 -49 0 -49 8 1 20 50 12 85
11 207 -5z m84 -92 c68 -15 70 -17 42 -25 -56 -17 -224 10 -209 33 8 14 88 11
167 -8z m62 -83 c-3 -5 -33 -10 -66 -10 -38 0 -58 4 -54 10 3 6 33 10 66 10
38 0 58 -4 54 -10z m-36 -182 c-54 -132 -70 -192 -71 -258 -1 -38 -5 -67 -9
-65 -4 3 -12 27 -19 55 -14 57 -7 115 21 180 22 51 80 140 91 140 5 0 -2 -24
-13 -52z m47 -85 c-37 -96 -56 -186 -48 -231 4 -23 2 -25 -9 -14 -10 9 -14 38
-13 100 1 96 23 168 72 232 40 52 39 19 -2 -87z m-542 -238 c23 -63 52 -111
79 -130 15 -10 17 -15 7 -15 -30 0 -90 62 -119 123 -56 115 -61 243 -14 329
l18 33 6 -145 c4 -101 11 -160 23 -195z m597 142 c-17 -62 -33 -125 -37 -142
l-6 -30 -10 25 c-18 47 -3 149 38 250 l39 95 3 -43 c2 -26 -9 -88 -27 -155z
m-397 101 c14 -28 26 -68 26 -87 0 -41 -10 -32 -29 24 -8 22 -26 59 -41 82
-16 23 -26 44 -23 47 13 12 43 -17 67 -66z m-110 -208 c23 -69 47 -134 51
-145 13 -33 -52 33 -79 80 -48 81 -70 217 -49 295 6 20 9 13 20 -40 7 -36 33
-121 57 -190z m40 78 c13 -45 27 -99 31 -118 l7 -35 -31 48 c-41 63 -71 155
-71 214 l1 48 19 -37 c11 -20 30 -74 44 -120z m564 110 c19 -19 13 -58 -23
-143 -33 -78 -34 -79 -44 -52 -16 43 -15 50 34 195 5 15 18 15 33 0z m-508
-88 c13 -47 13 -73 -1 -64 -16 9 -36 62 -44 114 l-6 45 20 -30 c12 -16 26 -46
31 -65z m-529 -57 c26 -15 45 -41 36 -49 -2 -2 -20 8 -40 21 -20 14 -41 25
-46 25 -6 0 -11 5 -11 10 0 15 29 12 61 -7z m-99 -270 c83 -107 197 -173 298
-173 51 0 58 -7 40 -40 -18 -34 -52 -43 -177 -50 -92 -5 -128 -11 -149 -25
l-28 -18 -33 38 c-62 72 -93 210 -93 419 l0 100 48 -95 c26 -52 68 -122 94
-156z m260 -23 c75 -50 54 -52 -41 -4 -104 52 -208 160 -242 252 -7 18 29 -12
107 -90 64 -65 143 -136 176 -158z m-72 144 c41 -34 91 -71 110 -83 38 -23 23
-28 -31 -9 -54 18 -117 66 -154 116 -19 26 -35 51 -35 56 0 10 6 5 110 -80z
m-91 -108 c31 -32 74 -71 95 -87 48 -35 32 -38 -32 -5 -116 59 -209 161 -220
239 l-5 42 53 -65 c29 -36 78 -91 109 -124z m668 38 c32 -22 45 -25 83 -20 42
5 43 4 20 -8 -14 -7 -55 -19 -92 -25 -37 -6 -75 -14 -83 -17 -22 -9 -19 18 6
60 12 20 23 36 25 36 2 0 20 -12 41 -26z m407 -153 c34 -31 187 -261 174 -261
-20 0 -64 30 -84 57 -12 16 -39 63 -59 104 -21 41 -54 89 -73 108 -32 30 -34
33 -12 26 14 -4 38 -19 54 -34z m182 -28 c59 -74 58 -73 40 -73 -9 0 -32 24
-51 54 -19 30 -40 56 -47 59 -8 4 -7 6 4 6 9 1 34 -20 54 -46z m-27 -60 c16
-27 39 -59 51 -72 29 -32 20 -36 -20 -8 -40 26 -103 105 -94 118 12 21 36 6
63 -38z m-532 -71 c35 -54 79 -115 100 -135 28 -29 32 -37 18 -37 -25 0 -77
34 -101 67 -43 58 -104 203 -86 203 4 0 35 -44 69 -98z m76 -4 c125 -106 228
-201 223 -205 -10 -10 -115 46 -155 82 -40 36 -147 175 -135 175 3 0 33 -24
67 -52z m-476 -95 c-2 -168 10 -220 66 -276 72 -72 21 -90 -91 -32 -37 19 -75
37 -84 39 -15 5 -16 10 -7 33 6 15 15 82 20 148 5 65 14 134 20 152 10 30 51
73 69 73 5 0 8 -62 7 -137z m581 100 c51 -24 107 -103 73 -103 -10 0 -62 42
-116 93 -35 34 -37 38 -15 32 14 -4 40 -14 58 -22z m-830 -41 c13 -9 -89 -42
-130 -42 -35 0 -7 21 49 36 58 15 65 16 81 6z m493 -19 c20 -17 64 -114 74
-163 7 -32 6 -34 -10 -20 -9 7 -34 48 -55 90 -21 42 -45 82 -54 89 -9 7 -13
17 -11 22 7 10 34 1 56 -18z m-187 -58 c15 -23 23 -51 56 -195 8 -33 21 -54
52 -81 52 -46 44 -70 -12 -33 -74 49 -114 134 -127 266 -6 73 3 86 31 43z
m153 -33 c17 -26 39 -74 49 -107 9 -33 19 -67 22 -75 4 -10 -2 -9 -17 5 -40
35 -84 121 -105 207 -9 40 13 27 51 -30z m-477 44 c0 -2 -30 -21 -66 -41 -119
-67 -183 -152 -184 -245 0 -33 -3 -41 -10 -30 -5 8 -10 49 -10 92 l0 76 63 65
c44 46 73 67 102 74 41 11 105 16 105 9z m438 -126 c28 -52 65 -128 81 -168
25 -61 27 -71 12 -62 -28 15 -79 77 -97 118 -14 32 -74 229 -74 242 0 10 30
-40 78 -130z m-413 55 c0 -13 -24 -34 -74 -65 -81 -49 -84 -53 -102 -122 -16
-57 -29 -53 -29 10 0 58 31 108 95 152 75 52 110 60 110 25z m69 -137 c-26
-38 -82 -88 -98 -88 -11 0 19 52 71 120 46 62 48 64 51 36 2 -18 -6 -42 -24
-68z m-88 25 c-13 -27 -47 -79 -74 -116 -45 -62 -51 -67 -57 -47 -17 54 33
151 98 190 52 32 60 26 33 -27z"/>
<path d="M2179 4721 c-39 -39 -39 -75 0 -91 58 -24 115 7 127 67 5 25 2 33
-14 42 -38 20 -81 13 -113 -18z"/>
<path d="M1959 4725 c-28 -15 -59 -78 -59 -120 0 -30 32 -65 60 -65 31 0 85
25 109 51 32 34 27 75 -13 115 -37 37 -57 41 -97 19z"/>
<path d="M10265 4706 c-37 -16 -55 -52 -55 -109 0 -36 5 -45 33 -64 53 -37
164 -26 187 17 30 56 -17 140 -88 160 -45 12 -40 12 -77 -4z"/>
<path d="M2354 4649 c-45 -13 -58 -32 -51 -81 14 -104 128 -167 221 -123 31
15 36 22 36 52 0 62 -53 129 -119 152 -39 13 -44 13 -87 0z"/>
<path d="M10533 4646 c-43 -20 -71 -75 -55 -110 18 -41 66 -59 136 -53 92 7
116 22 116 68 0 28 -8 47 -28 70 -24 27 -37 33 -83 36 -33 2 -66 -2 -86 -11z"/>
<path d="M2105 4551 c-37 -16 -58 -49 -59 -95 -1 -48 17 -70 83 -102 26 -12
39 -14 57 -5 56 25 81 119 49 181 -14 27 -20 30 -63 29 -26 0 -56 -4 -67 -8z"/>
<path d="M10105 4480 c-34 -65 -7 -166 51 -192 22 -10 32 -9 62 8 35 18 37 22
37 69 -1 65 -21 112 -56 130 -45 24 -76 19 -94 -15z"/>
<path d="M10364 4470 c-96 -39 -53 -210 52 -210 40 0 81 40 90 86 18 95 -56
159 -142 124z"/>
<path d="M2580 4420 c0 -5 -8 -10 -19 -10 -22 0 -31 -26 -31 -88 0 -84 44
-132 121 -132 58 0 79 26 79 96 0 58 -28 106 -74 128 -38 18 -76 21 -76 6z"/>
<path d="M2311 4364 c-60 -50 -62 -148 -4 -194 36 -28 68 -25 125 11 52 34 58
51 33 100 -9 16 -14 37 -13 46 4 20 -56 63 -88 63 -12 0 -36 -12 -53 -26z"/>
<path d="M9999 4188 c-39 -119 5 -267 87 -292 19 -6 22 -2 28 36 3 24 -2 99
-12 168 l-18 125 -35 3 c-34 3 -36 1 -50 -40z"/>
<path d="M10180 4205 c-22 -23 -25 -36 -25 -100 0 -64 3 -77 24 -99 29 -30 75
-35 86 -8 14 36 16 176 3 202 -19 35 -58 37 -88 5z"/>
<path d="M2544 4131 c-34 -21 -64 -75 -64 -115 0 -70 77 -159 118 -137 32 17
71 69 77 105 13 68 -35 166 -82 166 -10 0 -32 -9 -49 -19z"/>
<path d="M2709 4103 c-6 -15 -14 -73 -16 -128 -5 -89 -3 -103 14 -124 23 -29
44 -24 70 16 14 20 18 47 18 108 0 94 -8 130 -32 139 -10 3 -24 9 -30 12 -8 3
-17 -6 -24 -23z"/>
<path d="M2274 4076 c-46 -20 -77 -64 -70 -100 10 -47 53 -86 95 -86 51 0 113
38 123 75 25 92 -54 151 -148 111z"/>
<path d="M1830 3913 c0 -75 84 -183 174 -224 54 -25 106 -25 106 -1 0 33 -30
60 -83 77 -111 35 -126 45 -137 89 -22 89 -60 127 -60 59z"/>
<path d="M10198 3893 c-58 -60 -56 -128 3 -158 43 -23 64 -18 97 19 39 44 48
86 28 124 -26 51 -87 58 -128 15z"/>
<path d="M10441 3902 c-40 -12 -47 -34 -28 -84 28 -72 38 -81 90 -80 26 1 60
8 75 16 51 26 82 126 45 141 -27 10 -155 15 -182 7z"/>
<path d="M2209 3801 c-23 -24 -29 -38 -29 -74 0 -56 25 -89 78 -105 77 -23
116 -7 141 61 19 49 13 77 -23 113 -30 30 -40 34 -86 34 -44 0 -56 -4 -81 -29z"/>
<path d="M2508 3815 c-90 -49 -31 -211 75 -203 73 6 106 87 69 172 -21 46 -21
46 -69 46 -26 -1 -60 -7 -75 -15z"/>
<path d="M6324 2186 c-26 -26 -34 -42 -34 -70 0 -45 26 -61 86 -52 24 3 64 9
89 12 50 7 55 21 34 82 -14 40 -49 62 -100 62 -33 0 -47 -6 -75 -34z"/>
<path d="M3285 2183 c-91 -33 -133 -65 -158 -122 -19 -42 -19 -53 -9 -127 7
-44 12 -100 12 -125 0 -42 -21 -89 -40 -89 -5 0 -23 29 -41 65 -41 83 -129
188 -198 235 -118 81 -245 97 -358 46 -58 -27 -63 -31 -63 -61 0 -50 23 -115
68 -190 57 -94 56 -105 -10 -105 -194 0 -425 41 -750 133 l-228 64 0 -29 c0
-75 64 -120 195 -139 162 -22 254 -38 435 -78 380 -82 542 -91 758 -41 205 47
315 40 667 -44 217 -52 317 -62 473 -48 132 13 312 47 419 81 62 19 63 19 124
0 117 -37 198 -26 524 66 105 30 242 48 292 39 28 -5 38 -15 59 -55 28 -56 61
-71 103 -48 23 13 26 21 26 70 0 75 -19 115 -57 123 -92 18 -256 0 -583 -63
-201 -39 -285 -52 -285 -45 0 11 195 99 284 129 168 56 268 70 416 55 111 -11
130 -10 164 4 107 45 -70 107 -259 90 -171 -15 -313 -60 -639 -204 -122 -53
-222 -97 -223 -96 -1 1 9 31 24 66 20 52 26 83 27 155 0 49 -3 107 -7 128 l-8
37 -59 0 c-57 0 -85 -12 -55 -24 24 -9 17 -34 -12 -50 -47 -25 -82 -65 -147
-165 -35 -53 -70 -102 -79 -110 -15 -12 -17 -9 -17 30 0 63 31 117 115 197 66
63 88 92 69 92 -17 0 -119 -78 -149 -114 -61 -75 -80 -129 -80 -232 l0 -92
-69 -7 c-99 -9 -104 -2 -71 109 27 96 32 184 13 237 -13 33 -13 31 -18 -50 -4
-60 -9 -86 -19 -89 -11 -4 -13 7 -8 54 14 134 18 250 8 264 -15 22 -86 15
-135 -14 -92 -54 -164 -203 -183 -378 -3 -33 -11 -58 -17 -57 -6 0 -40 10 -76
22 l-65 22 -3 52 c-3 46 0 54 21 68 17 11 23 22 20 36 -5 18 -6 19 -18 2 -8
-10 -15 -16 -18 -13 -2 3 -1 55 4 117 6 89 5 124 -7 170 -8 32 -18 61 -22 65
-4 3 -38 -5 -77 -19z m-55 -73 c0 -5 -12 -54 -26 -107 -26 -101 -28 -180 -3
-209 9 -11 8 -14 -5 -14 -66 0 -67 216 0 317 15 24 34 31 34 13z m115 -40 c18
-34 18 -88 1 -190 l-13 -75 -18 60 c-13 44 -16 79 -12 136 7 105 16 120 42 69z
m-67 -172 c4 -142 -1 -160 -32 -114 -38 59 -40 172 -5 264 10 26 11 26 22 7 7
-12 13 -77 15 -157z m-573 141 c11 -17 -2 -22 -40 -15 -19 4 -33 11 -30 17 8
12 62 12 70 -2z m1015 -31 c0 -10 -12 -52 -26 -94 -15 -41 -29 -99 -33 -127
l-6 -52 -28 27 c-47 47 -31 146 39 242 28 37 38 45 45 35 5 -8 9 -22 9 -31z
m35 -107 c-10 -36 -21 -88 -24 -116 l-7 -50 -13 38 c-14 42 -11 73 22 187 l21
75 10 -34 c7 -26 5 -50 -9 -100z m-992 68 c42 -19 77 -37 77 -41 0 -5 -19 -8
-42 -8 -48 0 -219 74 -196 84 26 11 86 -2 161 -35z m1057 -42 c10 -48 9 -71
-5 -140 -9 -45 -18 -84 -21 -86 -22 -22 -30 107 -14 221 14 96 21 97 40 5z
m489 -11 c-5 -17 -23 -49 -40 -71 -16 -22 -42 -59 -57 -82 -15 -23 -30 -43
-34 -43 -5 0 -8 15 -8 34 0 36 29 86 91 153 22 24 39 48 39 55 0 10 3 9 9 -1
5 -8 5 -27 0 -45z m-1628 15 c30 -10 92 -37 138 -60 97 -49 97 -66 1 -65 -74
1 -148 36 -210 99 l-44 45 30 0 c17 0 55 -8 85 -19z m1669 -59 c0 -36 -19 -79
-57 -129 -27 -35 -92 -88 -99 -80 -3 3 17 39 44 80 27 42 60 101 73 132 24 59
39 58 39 -3z m65 0 c8 -38 -7 -75 -57 -136 -23 -28 -43 -53 -45 -55 -2 -2 -5
-2 -8 1 -3 3 15 44 40 91 25 47 45 95 45 106 0 31 17 25 25 -7z m-1723 -157
c41 -20 102 -41 136 -48 34 -6 62 -16 62 -21 0 -5 -31 -6 -68 -4 -118 9 -237
81 -291 179 l-24 43 56 -56 c35 -35 83 -70 129 -93z m-14 110 c112 -40 179
-74 208 -107 l19 -21 -34 7 c-124 23 -258 86 -289 134 -8 12 -12 22 -9 22 2 0
50 -16 105 -35z"/>
<path d="M6592 2173 c-44 -21 -48 -34 -27 -89 12 -32 28 -52 51 -66 19 -11 34
-24 34 -29 0 -20 -49 -117 -75 -147 -25 -30 -33 -33 -67 -30 l-39 4 6 -36 c7
-44 -2 -58 -43 -66 -26 -5 -32 -3 -32 10 0 10 5 26 10 36 9 18 8 18 -21 8 -45
-16 -77 13 -114 101 -55 132 -103 153 -180 79 -44 -43 -44 -43 -30 -76 16 -37
64 -62 118 -62 59 0 96 -11 122 -38 30 -30 32 -57 6 -72 -36 -19 -77 -11 -127
25 -77 54 -105 68 -117 56 -13 -13 32 -73 86 -112 74 -54 157 -62 216 -20 l29
21 6 -24 c10 -41 33 -39 76 7 l40 42 19 -22 c25 -30 82 -63 107 -63 13 0 50
26 88 60 37 33 75 60 85 60 9 0 24 -12 32 -26 25 -47 66 -74 115 -74 39 0 44
3 51 28 20 77 -8 154 -59 160 -14 2 -56 -15 -105 -42 -144 -82 -237 -90 -286
-25 -25 34 -12 61 43 89 l40 20 20 -20 c14 -14 33 -20 65 -20 38 0 50 5 70 28
45 51 29 89 -54 132 -33 16 -61 35 -63 42 -3 7 7 22 20 33 29 25 32 73 7 111
-19 29 -72 32 -123 7z"/>
<path d="M6114 2156 c-36 -16 -54 -55 -46 -104 4 -31 6 -32 51 -33 111 -3 131
5 131 53 0 40 -15 65 -50 83 -35 18 -46 18 -86 1z"/>
<path d="M6835 2107 l-27 -23 22 -47 c26 -55 57 -82 111 -98 54 -17 69 -8 69
41 0 117 -102 191 -175 127z"/>
<path d="M10920 2089 c-80 -69 -237 -124 -387 -136 -76 -5 -80 -7 -90 -34 -9
-22 -8 -29 4 -33 28 -11 181 -6 268 9 167 29 244 83 253 174 2 28 1 51 -4 51
-5 -1 -25 -14 -44 -31z"/>
<path d="M5711 2032 c-37 -20 -71 -72 -71 -109 0 -32 17 -73 34 -79 29 -11 96
16 115 47 25 41 38 139 19 150 -21 14 -61 10 -97 -9z"/>
<path d="M6350 2009 c-45 -19 -60 -40 -60 -83 1 -46 21 -67 83 -84 87 -24 157
26 157 112 0 26 -6 38 -21 47 -30 16 -129 21 -159 8z"/>
<path d="M7121 1994 c-52 -37 -57 -115 -8 -147 57 -36 93 -24 127 44 23 44 18
63 -26 98 -32 25 -61 27 -93 5z"/>
<path d="M5874 1956 c-28 -28 -34 -42 -34 -75 0 -40 1 -41 28 -35 84 18 121
44 152 103 16 31 1 41 -63 41 -42 0 -54 -5 -83 -34z"/>
<path d="M1870 1943 c0 -26 10 -32 113 -80 131 -61 214 -83 315 -83 70 0 132
18 132 39 0 12 -109 59 -188 82 -70 20 -319 69 -353 69 -14 0 -19 -7 -19 -27z"/>
<path d="M5710 1788 c-27 -45 -27 -117 1 -152 25 -32 49 -33 76 -3 53 57 58
114 14 158 -39 38 -66 37 -91 -3z"/>
<path d="M5953 1800 c-59 -35 -86 -105 -63 -160 12 -29 15 -30 72 -30 58 0 59
1 74 35 8 19 14 66 14 105 l0 70 -32 0 c-18 0 -47 -9 -65 -20z"/>
<path d="M11049 1739 l-23 -23 41 -17 c110 -47 310 -79 495 -79 138 0 198 13
240 52 31 29 32 31 13 38 -11 4 -117 10 -235 14 -204 6 -406 20 -477 31 -25 5
-38 0 -54 -16z"/>
<path d="M7181 1724 c-24 -20 -31 -34 -31 -61 0 -79 36 -91 125 -44 30 16 60
31 66 33 17 6 -7 75 -31 88 -36 19 -96 12 -129 -16z"/>
</g>
</svg>
